# xmcd
#
# Track frame offsets:
#	183
#	13100
#	30358
#	47815
#	66103
#	86033
#	104838
#	116020
#	128630
#	145618
#	162783
#	187310
#
# Disc length: 2727 seconds
#
# Revision: 7
# Processed by: cddbd v1.5.2PL0 Copyright (c) Steve Scherf et al.
# Submitted via: audiograbber 1.83.01
#
DISCID=a50aa50c
DTITLE=Williams, Lucinda - Sweet old world
DYEAR=1992
DGENRE=Country
TTITLE0=Six blocks away
TTITLE1=Something about what happens when we talk
TTITLE2=He never got enough love
TTITLE3=Sweet old world
TTITLE4=Little angel, little brother
TTITLE5=Pineola
TTITLE6=Lines around your eyes
TTITLE7=Prove my love
TTITLE8=Sidewalks of the city
TTITLE9=Memphis pearl
TTITLE10=Hot blood
TTITLE11=Which will
EXTD=
EXTT0=
EXTT1=
EXTT2=
EXTT3=
EXTT4=
EXTT5=
EXTT6=
EXTT7=
EXTT8=
EXTT9=
EXTT10=
EXTT11=
PLAYORDER=
